<svg xmlns="http://www.w3.org/2000/svg" xmlns:xlink="http://www.w3.org/1999/xlink" width="500" zoomAndPan="magnify" viewBox="0 0 375 374.999991" height="500" preserveAspectRatio="xMidYMid meet" version="1.0"><defs><g/><clipPath id="604bac3195"><path d="M 227 167 L 275 167 L 275 189 L 227 189 Z M 227 167 " clip-rule="nonzero"/></clipPath><clipPath id="b6ab012416"><path d="M 224.71875 172.175781 L 271.183594 163.585938 L 280.316406 213 L 233.855469 221.589844 Z M 224.71875 172.175781 " clip-rule="nonzero"/></clipPath><clipPath id="1d217adfcd"><path d="M 224.71875 172.175781 L 271.183594 163.585938 L 280.316406 213 L 233.855469 221.589844 Z M 224.71875 172.175781 " clip-rule="nonzero"/></clipPath><clipPath id="c7829669d8"><path d="M 230 196 L 278 196 L 278 218 L 230 218 Z M 230 196 " clip-rule="nonzero"/></clipPath><clipPath id="996bf80d04"><path d="M 224.71875 172.175781 L 271.183594 163.585938 L 280.316406 213 L 233.855469 221.589844 Z M 224.71875 172.175781 " clip-rule="nonzero"/></clipPath><clipPath id="e086f914c5"><path d="M 224.71875 172.175781 L 271.183594 163.585938 L 280.316406 213 L 233.855469 221.589844 Z M 224.71875 172.175781 " clip-rule="nonzero"/></clipPath><clipPath id="b824454ddb"><path d="M 237 192 L 278 192 L 278 211 L 237 211 Z M 237 192 " clip-rule="nonzero"/></clipPath><clipPath id="953ef86097"><path d="M 224.71875 172.175781 L 271.183594 163.585938 L 280.316406 213 L 233.855469 221.589844 Z M 224.71875 172.175781 " clip-rule="nonzero"/></clipPath><clipPath id="37c64f13ba"><path d="M 224.71875 172.175781 L 271.183594 163.585938 L 280.316406 213 L 233.855469 221.589844 Z M 224.71875 172.175781 " clip-rule="nonzero"/></clipPath><clipPath id="3f42ccb3db"><path d="M 228 174 L 268 174 L 268 193 L 228 193 Z M 228 174 " clip-rule="nonzero"/></clipPath><clipPath id="f63cb02943"><path d="M 224.71875 172.175781 L 271.183594 163.585938 L 280.316406 213 L 233.855469 221.589844 Z M 224.71875 172.175781 " clip-rule="nonzero"/></clipPath><clipPath id="a1902390dd"><path d="M 224.71875 172.175781 L 271.183594 163.585938 L 280.316406 213 L 233.855469 221.589844 Z M 224.71875 172.175781 " clip-rule="nonzero"/></clipPath><clipPath id="36d72d179c"><path d="M 241 168 L 263 168 L 263 216 L 241 216 Z M 241 168 " clip-rule="nonzero"/></clipPath><clipPath id="fd122b3372"><path d="M 243.835938 167.046875 L 264.78125 168.59375 L 261.25 216.464844 L 240.308594 214.917969 Z M 243.835938 167.046875 " clip-rule="nonzero"/></clipPath><clipPath id="30d9047c27"><path d="M 243.835938 167.046875 L 264.78125 168.59375 L 261.25 216.464844 L 240.308594 214.917969 Z M 243.835938 167.046875 " clip-rule="nonzero"/></clipPath><clipPath id="2bdd8f870f"><path d="M 243.835938 167.070312 L 264.660156 168.605469 L 261.148438 216.246094 L 240.324219 214.710938 Z M 243.835938 167.070312 " clip-rule="nonzero"/></clipPath><clipPath id="f87150cc57"><path d="M 243.835938 167.070312 L 264.628906 168.605469 L 261.117188 216.230469 L 240.324219 214.695312 Z M 243.835938 167.070312 " clip-rule="nonzero"/></clipPath><clipPath id="5af57abd92"><path d="M 0 148 L 29 148 L 29 180 L 0 180 Z M 0 148 " clip-rule="nonzero"/></clipPath><clipPath id="a43f78a0e1"><path d="M 3.25 143.824219 L 43.261719 156.582031 L 33.464844 187.308594 L -6.550781 174.546875 Z M 3.25 143.824219 " clip-rule="nonzero"/></clipPath><clipPath id="fe98485a2e"><path d="M -6.515625 174.4375 L 33.5 187.195312 L 43.296875 156.472656 L 3.285156 143.710938 Z M -6.515625 174.4375 " clip-rule="nonzero"/></clipPath><clipPath id="d6f6df27b3"><path d="M 25 154 L 41 154 L 41 170 L 25 170 Z M 25 154 " clip-rule="nonzero"/></clipPath><clipPath id="0a5b2af61f"><path d="M 3.25 143.824219 L 43.261719 156.582031 L 33.464844 187.308594 L -6.550781 174.546875 Z M 3.25 143.824219 " clip-rule="nonzero"/></clipPath><clipPath id="fa8a2db040"><path d="M -6.515625 174.4375 L 33.5 187.195312 L 43.296875 156.472656 L 3.285156 143.710938 Z M -6.515625 174.4375 " clip-rule="nonzero"/></clipPath><clipPath id="426bcb5675"><path d="M 17 171 L 27 171 L 27 182 L 17 182 Z M 17 171 " clip-rule="nonzero"/></clipPath><clipPath id="ef70efb6b9"><path d="M 3.25 143.824219 L 43.261719 156.582031 L 33.464844 187.308594 L -6.550781 174.546875 Z M 3.25 143.824219 " clip-rule="nonzero"/></clipPath><clipPath id="3a1b422ff6"><path d="M -6.515625 174.4375 L 33.5 187.195312 L 43.296875 156.472656 L 3.285156 143.710938 Z M -6.515625 174.4375 " clip-rule="nonzero"/></clipPath><clipPath id="6ba0cfe8e6"><path d="M 340 209 L 362 209 L 362 231 L 340 231 Z M 340 209 " clip-rule="nonzero"/></clipPath><clipPath id="c8a35c7b2c"><path d="M 337.015625 203.929688 L 364.882812 212.816406 L 358.046875 234.25 L 330.179688 225.363281 Z M 337.015625 203.929688 " clip-rule="nonzero"/></clipPath><clipPath id="a041bc7ee1"><path d="M 364.871094 212.8125 L 337.003906 203.925781 L 330.167969 225.359375 L 358.039062 234.246094 Z M 364.871094 212.8125 " clip-rule="nonzero"/></clipPath><clipPath id="95e41f8c21"><path d="M 331 216 L 343 216 L 343 227 L 331 227 Z M 331 216 " clip-rule="nonzero"/></clipPath><clipPath id="cf38cfae03"><path d="M 337.015625 203.929688 L 364.882812 212.816406 L 358.046875 234.25 L 330.179688 225.363281 Z M 337.015625 203.929688 " clip-rule="nonzero"/></clipPath><clipPath id="9edd16ae96"><path d="M 364.871094 212.8125 L 337.003906 203.925781 L 330.167969 225.359375 L 358.039062 234.246094 Z M 364.871094 212.8125 " clip-rule="nonzero"/></clipPath><clipPath id="85d11ff1da"><path d="M 341 208 L 349 208 L 349 215 L 341 215 Z M 341 208 " clip-rule="nonzero"/></clipPath><clipPath id="81895b75e2"><path d="M 337.015625 203.929688 L 364.882812 212.816406 L 358.046875 234.25 L 330.179688 225.363281 Z M 337.015625 203.929688 " clip-rule="nonzero"/></clipPath><clipPath id="5006a0dfd9"><path d="M 364.871094 212.8125 L 337.003906 203.925781 L 330.167969 225.359375 L 358.039062 234.246094 Z M 364.871094 212.8125 " clip-rule="nonzero"/></clipPath></defs><g fill="#c9f8f6" fill-opacity="1"><g transform="translate(311.904885, 162.186781)"><g><path d="M 0.714844 -0.257812 L 1.625 -0.589844 L 0.0234375 -5.003906 L 2.183594 -5.785156 L 1.878906 -6.628906 L -0.28125 -5.84375 L -1.621094 -9.542969 L 0.773438 -10.414062 L 0.464844 -11.269531 L -2.84375 -10.070312 Z M 0.714844 -0.257812 "/></g></g></g><g fill="#c9f8f6" fill-opacity="1"><g transform="translate(319.47147, 159.875249)"><g><path d="M 0.3125 -0.0117188 L 1.265625 -0.046875 L 1.703125 -2.765625 L 4.113281 -2.855469 L 4.765625 -0.179688 L 5.75 -0.214844 L 3.152344 -10.605469 L 2.109375 -10.566406 Z M 1.816406 -3.648438 L 2.679688 -8.933594 L 3.933594 -3.726562 Z M 1.816406 -3.648438 "/></g></g></g><g fill="#c9f8f6" fill-opacity="1"><g transform="translate(328.827225, 160.13324)"><g><path d="M 3.15625 0.996094 C 3.601562 1.121094 3.972656 1.121094 4.347656 1.011719 L 4.613281 0.078125 C 4.191406 0.207031 3.859375 0.21875 3.515625 0.121094 C 2.484375 -0.171875 2.007812 -1.660156 2.8125 -4.46875 L 2.894531 -4.753906 C 3.683594 -7.519531 4.882812 -8.574219 5.917969 -8.277344 C 6.246094 -8.183594 6.488281 -8.007812 6.800781 -7.683594 L 7.078125 -8.660156 C 6.796875 -8.910156 6.574219 -9.066406 6.117188 -9.199219 C 4.640625 -9.621094 2.914062 -8.40625 1.949219 -5.023438 L 1.867188 -4.738281 C 0.898438 -1.355469 1.636719 0.5625 3.15625 0.996094 Z M 3.15625 0.996094 "/></g></g></g><g fill="#c9f8f6" fill-opacity="1"><g transform="translate(336.679533, 162.924437)"><g><path d="M 1.492188 0.957031 L 2.308594 1.480469 L 7.453125 -6.535156 L 8.796875 -5.671875 L 9.289062 -6.4375 L 5.800781 -8.675781 L 5.308594 -7.914062 L 6.636719 -7.058594 Z M 1.492188 0.957031 "/></g></g></g><g fill="#c9f8f6" fill-opacity="1"><g transform="translate(343.080297, 167.503389)"><g><path d="M 1.839844 2.441406 C 2.78125 3.582031 4.808594 3.300781 7.464844 1.109375 L 7.71875 0.898438 C 10.375 -1.292969 11.035156 -3.230469 10.097656 -4.367188 C 9.160156 -5.507812 7.121094 -5.238281 4.464844 -3.046875 L 4.210938 -2.835938 C 1.554688 -0.644531 0.902344 1.304688 1.839844 2.441406 Z M 2.53125 1.875 C 1.960938 1.183594 2.570312 -0.207031 4.835938 -2.078125 L 5.089844 -2.285156 C 7.355469 -4.15625 8.839844 -4.488281 9.40625 -3.800781 C 9.976562 -3.109375 9.367188 -1.71875 7.101562 0.152344 L 6.847656 0.359375 C 4.582031 2.230469 3.101562 2.5625 2.53125 1.875 Z M 2.53125 1.875 "/></g></g></g><g fill="#c9f8f6" fill-opacity="1"><g transform="translate(348.589431, 175.061944)"><g><path d="M 0.269531 0.710938 L 0.609375 1.617188 L 4.402344 0.1875 L 4.582031 0.664062 C 4.636719 0.800781 4.6875 0.941406 4.761719 1.058594 L 1.539062 4.085938 L 1.921875 5.105469 L 5.363281 1.851562 C 6.140625 2.640625 7.296875 2.875 8.636719 2.371094 L 8.675781 2.355469 C 9.625 1.996094 10.261719 1.441406 10.558594 0.753906 C 10.878906 0.0742188 10.867188 -0.75 10.542969 -1.613281 L 10.035156 -2.96875 Z M 5.214844 -0.117188 L 9.539062 -1.746094 L 9.695312 -1.328125 C 10.136719 -0.15625 9.800781 0.894531 8.320312 1.453125 L 8.28125 1.46875 C 6.855469 2.003906 5.828125 1.515625 5.386719 0.34375 Z M 5.214844 -0.117188 "/></g></g></g><g fill="#c9f8f6" fill-opacity="1"><g transform="translate(351.258127, 183.718297)"><g><path d="M 0.09375 2.203125 L 0.132812 3.171875 L 4.527344 2.988281 L 10.648438 4.832031 L 10.605469 3.847656 L 5.757812 2.457031 L 10.472656 0.675781 L 10.429688 -0.351562 L 4.488281 2.019531 Z M 0.09375 2.203125 "/></g></g></g><g fill="#c9f8f6" fill-opacity="1"><g transform="translate(176.952294, 208.182835)"><g><path d="M 7.898438 -32.847656 C 7.898438 -36.734375 9.332031 -39.429688 12.144531 -39.429688 C 13.28125 -39.429688 14.121094 -39.1875 14.597656 -38.710938 C 15.496094 -37.753906 15.554688 -36.257812 15.136719 -34.34375 C 14.957031 -33.386719 14.777344 -32.429688 14.660156 -31.53125 C 14.417969 -29.617188 14.480469 -27.820312 15.675781 -26.683594 C 16.632812 -25.785156 17.890625 -25.90625 18.667969 -26.144531 C 19.625 -26.445312 20.402344 -27.34375 20.402344 -28.238281 C 20.402344 -29.019531 19.742188 -29.675781 18.964844 -29.675781 C 18.1875 -29.675781 17.589844 -29.019531 17.589844 -28.238281 L 17.589844 -28.121094 C 17.292969 -28.238281 17.171875 -28.539062 17.171875 -29.078125 C 17.230469 -29.734375 17.410156 -30.632812 17.769531 -31.769531 C 18.070312 -32.90625 18.429688 -34.042969 18.785156 -35.300781 C 19.503906 -37.691406 20.222656 -40.207031 20.222656 -41.640625 L 17.351562 -42.179688 C 15.617188 -42.421875 13.34375 -42.480469 11.128906 -42.179688 C 8.972656 -41.882812 6.640625 -41.042969 4.90625 -39.609375 C 3.171875 -38.113281 1.914062 -35.957031 1.914062 -32.847656 C 1.914062 -30.992188 2.273438 -29.316406 2.992188 -27.820312 C 4.367188 -24.890625 6.582031 -22.375 9.035156 -20.042969 C 10.289062 -18.847656 11.425781 -17.648438 12.503906 -16.394531 C 14.597656 -13.941406 16.152344 -11.128906 16.152344 -7.539062 C 16.152344 -2.332031 13.820312 0.957031 10.769531 0.957031 C 8.375 0.957031 7.058594 -1.4375 6.699219 -3.890625 C 6.34375 -6.28125 7 -8.675781 8.496094 -8.675781 C 8.496094 -10.53125 6.699219 -11.667969 4.847656 -11.425781 C 2.992188 -11.1875 1.195312 -9.574219 1.195312 -5.921875 C 1.195312 -3.289062 2.214844 -0.835938 3.890625 0.898438 C 5.5625 2.632812 7.957031 3.769531 10.769531 3.769531 C 14.539062 3.769531 17.351562 2.453125 19.265625 0.300781 C 21.179688 -1.792969 22.136719 -4.605469 22.136719 -7.539062 C 22.136719 -9.511719 21.777344 -11.308594 21.121094 -12.921875 C 19.683594 -16.152344 17.46875 -18.964844 15.015625 -21.417969 C 13.761719 -22.675781 12.625 -23.871094 11.605469 -25.128906 C 9.453125 -27.582031 7.898438 -30.035156 7.898438 -32.847656 Z M 7.898438 -32.847656 "/></g></g></g><g fill="#c9f8f6" fill-opacity="1"><g transform="translate(200.223248, 208.182835)"><g><path d="M 27.703125 -28.238281 C 27.703125 -29.019531 27.042969 -29.675781 26.265625 -29.675781 C 25.488281 -29.675781 24.890625 -29.019531 24.890625 -28.238281 L 24.890625 -28.121094 C 24.589844 -28.238281 24.472656 -28.539062 24.472656 -29.078125 C 24.53125 -29.734375 24.710938 -30.632812 25.070312 -31.769531 C 25.367188 -32.90625 25.726562 -34.042969 26.085938 -35.300781 C 26.804688 -37.691406 27.523438 -40.207031 27.523438 -41.640625 L 0.957031 -41.640625 C 0.957031 -40.207031 1.675781 -37.691406 2.394531 -35.300781 C 3.109375 -32.847656 3.890625 -30.453125 3.949219 -29.078125 C 4.007812 -28.539062 3.890625 -28.238281 3.53125 -28.121094 C 3.589844 -28.179688 3.589844 -28.179688 3.589844 -28.238281 C 3.589844 -29.019531 2.933594 -29.675781 2.152344 -29.675781 C 1.375 -29.675781 0.777344 -29.019531 0.777344 -28.238281 C 0.777344 -27.761719 0.957031 -27.34375 1.316406 -26.921875 C 2.035156 -26.144531 2.871094 -25.964844 3.949219 -26.027344 C 5.027344 -26.027344 6.28125 -27.101562 6.523438 -28.839844 C 6.761719 -30.511719 6.523438 -32.429688 6.222656 -34.34375 C 6.042969 -35.242188 5.984375 -36.078125 6.042969 -36.855469 C 6.101562 -38.292969 6.699219 -39.367188 8.617188 -39.429688 L 11.1875 -39.429688 L 11.1875 -1.4375 C 11.128906 -0.898438 11.128906 -0.359375 11.070312 0.179688 C 10.949219 1.316406 10.589844 2.332031 10.113281 2.332031 C 9.691406 2.332031 9.453125 2.511719 9.394531 2.8125 C 9.332031 2.992188 9.332031 3.109375 9.332031 3.230469 L 19.144531 3.230469 C 19.207031 3.109375 19.144531 2.992188 19.085938 2.8125 C 18.90625 2.511719 18.667969 2.332031 18.308594 2.332031 C 18.070312 2.332031 17.890625 2.09375 17.769531 1.675781 C 17.46875 0.777344 17.292969 -0.417969 17.292969 -1.4375 C 17.230469 -1.914062 17.230469 -2.214844 17.230469 -2.273438 L 17.230469 -39.429688 L 19.804688 -39.429688 C 20.761719 -39.367188 21.417969 -39.128906 21.777344 -38.652344 C 22.496094 -37.691406 22.496094 -36.199219 22.195312 -34.34375 C 22.019531 -33.386719 21.898438 -32.429688 21.839844 -31.53125 C 21.660156 -29.617188 21.777344 -27.820312 22.976562 -26.683594 C 23.933594 -25.785156 25.1875 -25.90625 25.964844 -26.144531 C 27.101562 -26.445312 27.703125 -27.34375 27.703125 -28.238281 Z M 27.703125 -28.238281 "/></g></g></g><g clip-path="url(#604bac3195)"><g clip-path="url(#b6ab012416)"><g clip-path="url(#1d217adfcd)"><path fill="#c9f8f6" d="M 227.855469 188.875 L 233.507812 187.828125 C 235.316406 180.558594 241.214844 174.644531 249.0625 173.191406 C 256.910156 171.742188 264.53125 175.15625 268.820312 181.300781 L 274.476562 180.253906 C 274.488281 180.246094 274.5 180.234375 274.511719 180.226562 L 274.515625 180.21875 C 274.011719 179.320312 273.449219 178.460938 272.84375 177.640625 L 272.835938 177.644531 C 269.734375 179.238281 266.441406 175.855469 268.121094 172.796875 C 267.3125 172.164062 266.464844 171.582031 265.585938 171.054688 C 263.332031 173.714844 258.992188 171.847656 259.371094 168.382812 L 259.375 168.375 C 258.390625 168.101562 257.386719 167.886719 256.367188 167.734375 L 256.363281 167.738281 C 255.300781 171.0625 250.578125 170.996094 249.601562 167.648438 C 249.09375 167.710938 248.589844 167.785156 248.082031 167.878906 C 247.574219 167.972656 247.070312 168.085938 246.578125 168.207031 C 246.863281 171.683594 242.476562 173.433594 240.292969 170.710938 L 240.289062 170.707031 C 239.390625 171.210938 238.53125 171.773438 237.710938 172.378906 L 237.714844 172.386719 C 239.308594 175.488281 235.925781 178.78125 232.867188 177.101562 C 232.234375 177.910156 231.652344 178.757812 231.121094 179.636719 C 233.785156 181.890625 231.917969 186.230469 228.449219 185.851562 L 228.445312 185.847656 C 228.167969 186.832031 227.953125 187.835938 227.800781 188.855469 L 227.808594 188.859375 C 227.824219 188.863281 227.839844 188.867188 227.855469 188.875 " fill-opacity="1" fill-rule="nonzero"/></g></g></g><g clip-path="url(#c7829669d8)"><g clip-path="url(#996bf80d04)"><g clip-path="url(#e086f914c5)"><path fill="#c9f8f6" d="M 277.4375 196.28125 L 271.78125 197.324219 C 269.972656 204.597656 264.078125 210.511719 256.230469 211.960938 C 248.378906 213.410156 240.761719 209.996094 236.472656 203.851562 L 230.816406 204.898438 C 230.804688 204.910156 230.792969 204.917969 230.78125 204.929688 L 230.773438 204.933594 C 231.28125 205.832031 231.839844 206.691406 232.449219 207.511719 L 232.453125 207.507812 C 235.554688 205.914062 238.847656 209.296875 237.171875 212.355469 C 237.980469 212.988281 238.824219 213.570312 239.703125 214.101562 C 241.960938 211.4375 246.300781 213.304688 245.917969 216.773438 L 245.917969 216.777344 C 246.902344 217.054688 247.90625 217.269531 248.925781 217.421875 L 248.925781 217.414062 C 249.992188 214.09375 254.714844 214.15625 255.691406 217.503906 L 255.691406 217.507812 C 256.195312 217.445312 256.703125 217.367188 257.210938 217.273438 C 257.71875 217.179688 258.21875 217.070312 258.714844 216.945312 C 258.429688 213.46875 262.816406 211.722656 264.996094 214.441406 L 265.003906 214.449219 C 265.898438 213.941406 266.761719 213.382812 267.582031 212.773438 L 267.578125 212.769531 C 265.984375 209.667969 269.367188 206.375 272.425781 208.050781 C 273.058594 207.242188 273.640625 206.398438 274.167969 205.519531 C 271.507812 203.261719 273.375 198.921875 276.839844 199.304688 L 276.847656 199.304688 C 277.121094 198.320312 277.335938 197.320312 277.488281 196.296875 L 277.484375 196.296875 C 277.46875 196.292969 277.453125 196.285156 277.4375 196.28125 " fill-opacity="1" fill-rule="nonzero"/></g></g></g><g clip-path="url(#b824454ddb)"><g clip-path="url(#953ef86097)"><g clip-path="url(#37c64f13ba)"><path fill="#c9f8f6" d="M 268.089844 194.289062 C 268.007812 195.039062 267.871094 195.773438 267.683594 196.492188 L 267.652344 196.496094 C 266.175781 202.132812 261.570312 206.699219 255.464844 207.828125 C 250.203125 208.800781 245.070312 206.992188 241.582031 203.445312 L 254.222656 201.105469 L 253.84375 199.050781 L 237.527344 202.066406 C 241.304688 208.078125 248.484375 211.492188 255.890625 210.125 C 263.292969 208.753906 268.777344 203 270.15625 196.035156 L 277.199219 194.730469 L 276.820312 192.675781 L 268.089844 194.289062 " fill-opacity="1" fill-rule="nonzero"/></g></g></g><g clip-path="url(#3f42ccb3db)"><g clip-path="url(#f63cb02943)"><g clip-path="url(#a1902390dd)"><path fill="#c9f8f6" d="M 237.640625 188.65625 C 239.113281 183.019531 243.71875 178.457031 249.828125 177.328125 C 255.089844 176.355469 260.21875 178.164062 263.710938 181.710938 L 251.070312 184.046875 L 251.449219 186.105469 L 267.761719 183.089844 C 263.988281 177.078125 256.804688 173.660156 249.402344 175.03125 C 241.996094 176.398438 236.511719 182.15625 235.136719 189.121094 L 228.121094 190.417969 L 228.5 192.472656 L 237.230469 190.859375 C 237.3125 190.109375 237.449219 189.375 237.640625 188.65625 " fill-opacity="1" fill-rule="nonzero"/></g></g></g><g clip-path="url(#36d72d179c)"><g clip-path="url(#fd122b3372)"><g clip-path="url(#30d9047c27)"><g clip-path="url(#2bdd8f870f)"><g clip-path="url(#f87150cc57)"><path fill="#c9f8f6" d="M 259.1875 168.203125 L 241.53125 198.347656 L 250.109375 199.03125 L 246.710938 215.167969 L 262.933594 191.570312 L 254.230469 190.660156 L 259.1875 168.203125 " fill-opacity="1" fill-rule="nonzero"/></g></g></g></g></g><g fill="#c9f8f6" fill-opacity="1"><g transform="translate(276.839226, 208.182835)"><g><path d="M 30.871094 7.480469 C 30.09375 7.480469 29.496094 8.136719 29.496094 8.914062 L 29.496094 8.972656 C 28.71875 8.972656 28 8.554688 27.34375 7.660156 C 25.964844 5.921875 24.589844 3.171875 23.15625 -0.121094 C 22.375 -1.734375 21.597656 -3.351562 20.703125 -4.847656 C 18.964844 -7.835938 16.933594 -10.410156 14.359375 -11.367188 C 17.53125 -11.90625 20.402344 -13.582031 22.496094 -16.035156 C 24.589844 -18.488281 25.90625 -21.898438 25.90625 -25.964844 C 25.90625 -30.933594 24.050781 -34.820312 21 -37.515625 C 17.949219 -40.207031 13.640625 -41.640625 8.855469 -41.640625 L 1.015625 -41.640625 C 0.957031 -41.460938 1.015625 -41.34375 1.078125 -41.164062 C 1.136719 -40.863281 1.4375 -40.746094 1.855469 -40.746094 C 2.09375 -40.746094 2.273438 -40.503906 2.453125 -40.085938 C 2.691406 -39.1875 2.8125 -37.992188 2.871094 -37.035156 L 2.871094 -1.4375 C 2.8125 -0.417969 2.691406 0.777344 2.453125 1.675781 C 2.273438 2.09375 2.09375 2.332031 1.855469 2.332031 C 1.4375 2.332031 1.136719 2.511719 1.078125 2.8125 C 1.015625 2.992188 0.957031 3.109375 1.015625 3.230469 L 10.828125 3.230469 C 10.828125 3.109375 10.828125 2.992188 10.769531 2.8125 C 10.589844 2.574219 10.46875 2.332031 9.992188 2.332031 C 9.753906 2.332031 9.574219 2.09375 9.453125 1.675781 C 9.152344 0.777344 8.972656 -0.417969 8.972656 -1.4375 C 8.914062 -1.914062 8.914062 -2.214844 8.914062 -2.273438 L 8.914062 -11.367188 C 10.050781 -11.070312 11.546875 -9.273438 13.164062 -6.761719 C 14.777344 -4.246094 16.511719 -1.136719 18.128906 1.734375 C 19.742188 4.605469 21.179688 7.238281 22.375 8.675781 C 23.8125 10.53125 25.609375 11.25 27.28125 11.425781 C 28.898438 11.667969 30.394531 11.367188 31.113281 10.890625 C 32.007812 10.351562 32.308594 9.574219 32.308594 8.914062 C 32.308594 8.136719 31.652344 7.480469 30.871094 7.480469 Z M 8.914062 -13.582031 L 8.914062 -39.1875 C 11.546875 -39.128906 14.359375 -38.113281 16.511719 -35.957031 C 18.667969 -33.804688 20.164062 -30.632812 20.164062 -26.144531 C 20.164062 -22.375 18.847656 -19.207031 16.8125 -17.050781 C 14.777344 -14.839844 12.085938 -13.582031 9.453125 -13.582031 Z M 8.914062 -13.582031 "/></g></g></g><g fill="#c9f8f6" fill-opacity="1"><g transform="translate(304.058477, 208.182835)"><g><path d="M 32.488281 2.332031 C 32.1875 2.332031 32.007812 2.09375 31.890625 1.617188 C 31.652344 0.65625 31.472656 -0.597656 31.410156 -2.332031 L 31.410156 -36.078125 L 31.589844 -38.410156 C 31.769531 -39.546875 31.949219 -40.746094 32.488281 -40.746094 C 32.726562 -40.746094 32.90625 -40.804688 33.027344 -40.863281 C 33.207031 -41.042969 33.324219 -41.34375 33.324219 -41.640625 L 25.429688 -41.640625 L 17.53125 -15.015625 L 9.632812 -41.640625 L 1.675781 -41.640625 C 1.617188 -41.460938 1.675781 -41.34375 1.734375 -41.164062 C 1.792969 -40.863281 2.09375 -40.746094 2.511719 -40.746094 C 2.753906 -40.746094 2.933594 -40.503906 3.109375 -40.085938 C 3.351562 -39.1875 3.46875 -37.992188 3.53125 -37.035156 L 3.53125 -1.4375 C 3.46875 -0.417969 3.351562 0.777344 3.109375 1.675781 C 2.933594 2.09375 2.753906 2.332031 2.511719 2.332031 C 2.09375 2.332031 1.792969 2.511719 1.734375 2.8125 C 1.675781 2.992188 1.617188 3.109375 1.675781 3.230469 L 9.332031 3.230469 C 9.394531 3.109375 9.332031 2.992188 9.273438 2.8125 C 9.09375 2.511719 8.855469 2.332031 8.496094 2.332031 C 8.257812 2.332031 8.078125 2.09375 7.957031 1.675781 C 7.660156 0.777344 7.480469 -0.417969 7.480469 -1.4375 C 7.417969 -1.914062 7.417969 -2.214844 7.417969 -2.273438 L 7.417969 -29.316406 L 16.511719 0 L 25.429688 -28.539062 L 25.429688 -2.273438 C 25.429688 -2.214844 25.429688 -1.914062 25.367188 -1.4375 C 25.308594 -0.417969 25.1875 0.777344 24.949219 1.675781 C 24.769531 2.09375 24.589844 2.332031 24.351562 2.332031 C 23.933594 2.332031 23.632812 2.511719 23.574219 2.8125 C 23.511719 2.992188 23.453125 3.109375 23.511719 3.230469 L 33.324219 3.230469 C 33.324219 3.109375 33.324219 2.992188 33.265625 2.8125 C 33.085938 2.574219 32.964844 2.332031 32.488281 2.332031 Z M 32.488281 2.332031 "/></g></g></g><g fill="#c9f8f6" fill-opacity="1"><g transform="translate(29.640938, 209.312763)"><g><path d="M 24.785156 -28.195312 C 24.785156 -32.984375 23.109375 -36.339844 20.355469 -38.492188 C 17.601562 -40.648438 13.769531 -41.667969 9.519531 -41.667969 L 1.617188 -41.667969 C 1.554688 -41.488281 1.617188 -41.367188 1.675781 -41.1875 C 1.734375 -40.886719 2.035156 -40.769531 2.453125 -40.769531 C 2.695312 -40.769531 2.875 -40.527344 3.054688 -40.109375 C 3.292969 -39.152344 3.414062 -37.953125 3.472656 -36.996094 L 3.472656 -1.4375 C 3.414062 -0.480469 3.292969 0.71875 3.054688 1.617188 C 2.875 2.09375 2.695312 2.335938 2.453125 2.335938 C 2.035156 2.335938 1.734375 2.515625 1.675781 2.8125 C 1.617188 2.992188 1.554688 3.113281 1.617188 3.234375 L 14.308594 3.234375 C 17.480469 3.234375 20.113281 1.796875 21.96875 -0.539062 C 23.828125 -2.875 24.84375 -6.046875 24.84375 -9.636719 L 24.84375 -19.574219 C 24.785156 -21.371094 24.785156 -23.046875 24.785156 -24.664062 Z M 10.894531 0.898438 C 10.417969 0.898438 9.996094 0.839844 9.519531 0.777344 L 9.519531 -38.613281 C 13.289062 -38.554688 15.566406 -37.773438 16.941406 -36.097656 C 18.320312 -34.421875 18.738281 -31.847656 18.738281 -28.195312 L 18.738281 -24.84375 C 18.738281 -23.226562 18.738281 -21.492188 18.796875 -19.636719 L 18.796875 -9.339844 C 18.796875 -6.945312 18.078125 -4.371094 16.703125 -2.453125 C 15.324219 -0.480469 13.351562 0.898438 10.894531 0.898438 Z M 10.894531 0.898438 "/></g></g></g><g fill="#c9f8f6" fill-opacity="1"><g transform="translate(56.09875, 209.312763)"><g><path d="M 30.890625 7.484375 C 30.113281 7.484375 29.511719 8.140625 29.511719 8.917969 L 29.511719 8.980469 C 28.734375 8.980469 28.015625 8.5625 27.359375 7.664062 C 25.980469 5.925781 24.605469 3.171875 23.167969 -0.121094 C 22.390625 -1.734375 21.609375 -3.351562 20.714844 -4.847656 C 18.976562 -7.84375 16.941406 -10.417969 14.367188 -11.375 C 17.539062 -11.914062 20.414062 -13.589844 22.507812 -16.042969 C 24.605469 -18.5 25.921875 -21.910156 25.921875 -25.980469 C 25.921875 -30.949219 24.066406 -34.839844 21.011719 -37.535156 C 17.960938 -40.230469 13.648438 -41.667969 8.859375 -41.667969 L 1.019531 -41.667969 C 0.957031 -41.488281 1.019531 -41.367188 1.078125 -41.1875 C 1.136719 -40.886719 1.4375 -40.769531 1.855469 -40.769531 C 2.09375 -40.769531 2.273438 -40.527344 2.453125 -40.109375 C 2.695312 -39.210938 2.8125 -38.015625 2.875 -37.054688 L 2.875 -1.4375 C 2.8125 -0.417969 2.695312 0.777344 2.453125 1.675781 C 2.273438 2.09375 2.09375 2.335938 1.855469 2.335938 C 1.4375 2.335938 1.136719 2.515625 1.078125 2.8125 C 1.019531 2.992188 0.957031 3.113281 1.019531 3.234375 L 10.835938 3.234375 C 10.835938 3.113281 10.835938 2.992188 10.777344 2.8125 C 10.597656 2.574219 10.476562 2.335938 9.996094 2.335938 C 9.757812 2.335938 9.578125 2.09375 9.457031 1.675781 C 9.160156 0.777344 8.980469 -0.417969 8.980469 -1.4375 C 8.917969 -1.914062 8.917969 -2.214844 8.917969 -2.273438 L 8.917969 -11.375 C 10.058594 -11.074219 11.554688 -9.277344 13.171875 -6.765625 C 14.785156 -4.25 16.523438 -1.136719 18.140625 1.734375 C 19.753906 4.609375 21.191406 7.242188 22.390625 8.679688 C 23.828125 10.535156 25.621094 11.253906 27.296875 11.433594 C 28.914062 11.671875 30.410156 11.375 31.128906 10.894531 C 32.027344 10.355469 32.328125 9.578125 32.328125 8.917969 C 32.328125 8.140625 31.667969 7.484375 30.890625 7.484375 Z M 8.917969 -13.589844 L 8.917969 -39.210938 C 11.554688 -39.152344 14.367188 -38.132812 16.523438 -35.980469 C 18.679688 -33.824219 20.175781 -30.652344 20.175781 -26.160156 C 20.175781 -22.390625 18.859375 -19.214844 16.820312 -17.0625 C 14.785156 -14.847656 12.09375 -13.589844 9.457031 -13.589844 Z M 8.917969 -13.589844 "/></g></g></g><g fill="#c9f8f6" fill-opacity="1"><g transform="translate(83.334723, 209.312763)"><g><path d="M 20.894531 -10.476562 C 20.355469 -10.535156 19.933594 -10.535156 19.515625 -10.476562 C 18.796875 -10.296875 18.140625 -9.9375 18.140625 -8.5625 C 18.140625 -7.601562 17.898438 -5.269531 17.121094 -3.113281 C 16.34375 -0.957031 14.964844 0.957031 12.632812 1.019531 L 9.398438 1.019531 L 9.398438 -12.390625 L 10.417969 -12.390625 C 11.375 -12.332031 12.570312 -12.152344 13.410156 -11.914062 C 13.828125 -11.734375 14.007812 -11.554688 14.007812 -11.316406 C 14.007812 -10.535156 14.605469 -10.535156 14.90625 -10.535156 L 14.90625 -16.523438 C 14.726562 -16.523438 14.605469 -16.523438 14.425781 -16.464844 C 14.1875 -16.285156 14.007812 -16.164062 14.007812 -15.683594 C 14.007812 -15.445312 13.828125 -15.265625 13.410156 -15.144531 C 12.992188 -15.027344 12.511719 -14.90625 11.972656 -14.847656 C 10.894531 -14.667969 9.699219 -14.667969 9.398438 -14.667969 L 9.398438 -39.449219 L 12.8125 -39.449219 C 13.769531 -39.390625 14.425781 -39.152344 14.785156 -38.671875 C 15.503906 -37.714844 15.566406 -36.21875 15.207031 -34.363281 C 15.027344 -33.40625 14.847656 -32.445312 14.785156 -31.550781 C 14.605469 -29.632812 14.785156 -27.835938 15.984375 -26.699219 C 16.882812 -25.800781 18.078125 -25.921875 18.976562 -26.160156 C 19.933594 -26.460938 20.652344 -27.359375 20.652344 -28.257812 C 20.652344 -29.035156 19.996094 -29.691406 19.277344 -29.691406 C 18.5 -29.691406 17.839844 -29.035156 17.839844 -28.257812 L 17.839844 -28.136719 C 17.539062 -28.316406 17.421875 -28.617188 17.480469 -29.09375 C 17.539062 -30.472656 18.320312 -32.867188 19.035156 -35.320312 C 19.753906 -37.714844 20.472656 -40.230469 20.472656 -41.667969 L 1.496094 -41.667969 C 1.4375 -41.488281 1.496094 -41.367188 1.554688 -41.1875 C 1.617188 -40.886719 1.914062 -40.769531 2.335938 -40.769531 C 2.574219 -40.769531 2.753906 -40.527344 2.933594 -40.109375 C 3.171875 -39.210938 3.292969 -38.015625 3.351562 -37.054688 L 3.351562 -1.4375 C 3.292969 -0.417969 3.171875 0.777344 2.933594 1.675781 C 2.753906 2.09375 2.574219 2.335938 2.335938 2.335938 C 1.914062 2.335938 1.617188 2.515625 1.554688 2.8125 C 1.496094 2.992188 1.4375 3.113281 1.496094 3.234375 L 20.894531 3.234375 C 20.355469 1.078125 20.054688 -0.839844 19.996094 -2.574219 C 19.933594 -5.925781 20.175781 -8.320312 20.894531 -10.476562 Z M 20.894531 -10.476562 "/></g></g></g><g fill="#c9f8f6" fill-opacity="1"><g transform="translate(105.901678, 209.312763)"><g><path d="M 28.617188 2.335938 C 28.375 2.335938 28.136719 2.09375 27.898438 1.617188 C 27.417969 0.71875 27.117188 -0.539062 26.878906 -1.496094 L 26.699219 -2.273438 L 25.621094 -8.621094 C 26.878906 -9.277344 27.71875 -10.714844 27.835938 -12.210938 C 27.957031 -13.648438 27.296875 -15.207031 25.800781 -16.164062 C 25.863281 -15.863281 25.800781 -15.503906 25.742188 -15.207031 C 25.5625 -14.667969 25.441406 -13.949219 24.785156 -13.230469 L 20.773438 -36.160156 C 20.773438 -36.21875 20.773438 -36.457031 20.714844 -36.9375 C 20.59375 -37.894531 20.472656 -39.09375 20.59375 -40.050781 C 20.652344 -40.527344 20.773438 -40.769531 21.011719 -40.769531 C 21.253906 -40.769531 21.433594 -40.828125 21.492188 -40.886719 C 21.671875 -41.066406 21.730469 -41.367188 21.671875 -41.667969 L 11.433594 -41.667969 C 11.253906 -41.367188 11.136719 -40.769531 12.03125 -40.769531 C 12.273438 -40.769531 12.390625 -40.527344 12.453125 -40.109375 C 12.453125 -39.152344 12.332031 -37.953125 12.152344 -36.996094 L 11.972656 -36.160156 L 3.890625 -2.273438 C 3.890625 -2.214844 3.832031 -1.976562 3.710938 -1.496094 L 3.171875 0.0585938 C 2.695312 1.257812 2.15625 2.335938 1.675781 2.335938 C 1.257812 2.335938 1.019531 2.515625 0.839844 2.8125 L 0.660156 3.234375 L 8.320312 3.234375 C 8.382812 3.113281 8.441406 2.992188 8.382812 2.8125 C 8.320312 2.515625 8.082031 2.335938 7.722656 2.335938 C 7.421875 2.335938 7.242188 1.855469 7.242188 1.199219 C 7.242188 0.539062 7.304688 -0.238281 7.484375 -0.957031 C 7.722656 -1.914062 8.261719 -2.695312 9.097656 -3.351562 C 10.714844 -4.550781 13.109375 -5.386719 15.804688 -5.925781 L 19.875 -6.824219 L 20.652344 -2.273438 L 20.773438 -1.4375 C 20.953125 -0.480469 21.011719 0.71875 20.894531 1.617188 C 20.832031 2.09375 20.652344 2.335938 20.414062 2.335938 C 20.175781 2.335938 19.996094 2.394531 19.933594 2.453125 C 19.753906 2.695312 19.695312 2.992188 19.753906 3.234375 L 29.574219 3.234375 C 29.574219 3.113281 29.511719 2.992188 29.453125 2.8125 C 29.273438 2.515625 29.035156 2.335938 28.617188 2.335938 Z M 15.207031 -33.464844 L 19.214844 -10.714844 C 13.710938 -9.578125 10.535156 -7.902344 8.679688 -6.285156 Z M 15.207031 -33.464844 "/></g></g></g><g fill="#c9f8f6" fill-opacity="1"><g transform="translate(136.429922, 209.312763)"><g><path d="M 32.507812 2.335938 C 32.207031 2.335938 32.027344 2.09375 31.90625 1.617188 C 31.667969 0.660156 31.488281 -0.597656 31.429688 -2.335938 L 31.429688 -36.097656 L 31.609375 -38.433594 C 31.789062 -39.570312 31.96875 -40.769531 32.507812 -40.769531 C 32.746094 -40.769531 32.925781 -40.828125 33.046875 -40.886719 C 33.226562 -41.066406 33.34375 -41.367188 33.34375 -41.667969 L 25.441406 -41.667969 L 17.539062 -15.027344 L 9.636719 -41.667969 L 1.675781 -41.667969 C 1.617188 -41.488281 1.675781 -41.367188 1.734375 -41.1875 C 1.796875 -40.886719 2.09375 -40.769531 2.515625 -40.769531 C 2.753906 -40.769531 2.933594 -40.527344 3.113281 -40.109375 C 3.351562 -39.210938 3.472656 -38.015625 3.53125 -37.054688 L 3.53125 -1.4375 C 3.472656 -0.417969 3.351562 0.777344 3.113281 1.675781 C 2.933594 2.09375 2.753906 2.335938 2.515625 2.335938 C 2.09375 2.335938 1.796875 2.515625 1.734375 2.8125 C 1.675781 2.992188 1.617188 3.113281 1.675781 3.234375 L 9.339844 3.234375 C 9.398438 3.113281 9.339844 2.992188 9.277344 2.8125 C 9.097656 2.515625 8.859375 2.335938 8.5 2.335938 C 8.261719 2.335938 8.082031 2.09375 7.960938 1.675781 C 7.664062 0.777344 7.484375 -0.417969 7.484375 -1.4375 C 7.421875 -1.914062 7.421875 -2.214844 7.421875 -2.273438 L 7.421875 -29.332031 L 16.523438 0 L 25.441406 -28.554688 L 25.441406 -2.273438 C 25.441406 -2.214844 25.441406 -1.914062 25.382812 -1.4375 C 25.324219 -0.417969 25.203125 0.777344 24.964844 1.675781 C 24.785156 2.09375 24.605469 2.335938 24.363281 2.335938 C 23.945312 2.335938 23.648438 2.515625 23.585938 2.8125 C 23.527344 2.992188 23.46875 3.113281 23.527344 3.234375 L 33.34375 3.234375 C 33.34375 3.113281 33.34375 2.992188 33.285156 2.8125 C 33.105469 2.574219 32.984375 2.335938 32.507812 2.335938 Z M 32.507812 2.335938 "/></g></g></g><g fill="#c9f8f6" fill-opacity="1"><g transform="translate(171.455029, 209.312763)"><g/></g></g><g clip-path="url(#5af57abd92)"><g clip-path="url(#a43f78a0e1)"><g clip-path="url(#fe98485a2e)"><path fill="#c9f8f6" d="M 11.640625 171.242188 C 11.820312 170.832031 12.035156 170.441406 12.285156 170.066406 C 12.53125 169.695312 12.808594 169.34375 13.117188 169.019531 C 13.425781 168.691406 13.757812 168.394531 14.117188 168.125 C 14.472656 167.855469 14.851562 167.617188 15.25 167.410156 C 15.648438 167.207031 16.058594 167.035156 16.488281 166.898438 C 16.914062 166.765625 17.347656 166.664062 17.792969 166.601562 C 18.238281 166.542969 18.683594 166.515625 19.128906 166.53125 C 19.578125 166.546875 20.023438 166.597656 20.460938 166.683594 C 23.25 167.277344 25.996094 168.019531 28.703125 168.90625 C 25.980469 168.0625 23.3125 167.074219 20.699219 165.945312 C 20.289062 165.761719 19.894531 165.546875 19.523438 165.300781 C 19.148438 165.050781 18.800781 164.773438 18.472656 164.46875 C 18.148438 164.160156 17.851562 163.828125 17.582031 163.46875 C 17.3125 163.113281 17.074219 162.734375 16.867188 162.335938 C 16.664062 161.9375 16.492188 161.523438 16.355469 161.097656 C 16.21875 160.671875 16.121094 160.234375 16.058594 159.792969 C 15.996094 159.347656 15.972656 158.902344 15.988281 158.453125 C 16 158.007812 16.054688 157.5625 16.140625 157.125 C 16.734375 154.335938 17.472656 151.589844 18.363281 148.882812 C 17.519531 151.601562 16.53125 154.273438 15.402344 156.886719 C 15.21875 157.296875 15.003906 157.6875 14.757812 158.0625 C 14.507812 158.433594 14.230469 158.785156 13.921875 159.109375 C 13.617188 159.4375 13.285156 159.734375 12.925781 160.003906 C 12.566406 160.273438 12.191406 160.511719 11.792969 160.71875 C 11.394531 160.921875 10.980469 161.09375 10.554688 161.230469 C 10.128906 161.363281 9.691406 161.464844 9.25 161.523438 C 8.804688 161.585938 8.359375 161.609375 7.910156 161.597656 C 7.460938 161.582031 7.019531 161.53125 6.582031 161.441406 C 3.792969 160.851562 1.046875 160.109375 -1.664062 159.222656 C 1.058594 160.066406 3.726562 161.054688 6.34375 162.183594 C 6.753906 162.367188 7.144531 162.582031 7.519531 162.828125 C 7.890625 163.078125 8.242188 163.355469 8.566406 163.660156 C 8.894531 163.96875 9.191406 164.300781 9.460938 164.660156 C 9.730469 165.015625 9.96875 165.394531 10.171875 165.792969 C 10.378906 166.191406 10.550781 166.605469 10.683594 167.03125 C 10.820312 167.457031 10.917969 167.894531 10.980469 168.335938 C 11.042969 168.78125 11.066406 169.226562 11.054688 169.675781 C 11.039062 170.121094 10.988281 170.566406 10.898438 171.003906 C 10.308594 173.792969 9.566406 176.539062 8.679688 179.246094 C 9.523438 176.527344 10.507812 173.855469 11.640625 171.242188 Z M 11.640625 171.242188 " fill-opacity="1" fill-rule="nonzero"/></g></g></g><g clip-path="url(#d6f6df27b3)"><g clip-path="url(#0a5b2af61f)"><g clip-path="url(#fa8a2db040)"><path fill="#c9f8f6" d="M 32.152344 165.476562 C 32.339844 165.058594 32.585938 164.683594 32.902344 164.351562 C 33.214844 164.019531 33.574219 163.75 33.980469 163.539062 C 34.386719 163.328125 34.816406 163.191406 35.265625 163.128906 C 35.71875 163.066406 36.167969 163.082031 36.617188 163.171875 C 38.027344 163.472656 39.417969 163.84375 40.789062 164.292969 C 39.410156 163.867188 38.058594 163.367188 36.738281 162.796875 C 36.320312 162.609375 35.945312 162.363281 35.613281 162.046875 C 35.277344 161.734375 35.007812 161.375 34.796875 160.96875 C 34.589844 160.5625 34.453125 160.136719 34.390625 159.683594 C 34.328125 159.230469 34.339844 158.78125 34.429688 158.332031 C 34.730469 156.921875 35.105469 155.53125 35.554688 154.160156 C 35.128906 155.539062 34.628906 156.890625 34.054688 158.214844 C 33.871094 158.628906 33.621094 159.003906 33.308594 159.339844 C 32.996094 159.671875 32.636719 159.941406 32.230469 160.152344 C 31.824219 160.359375 31.394531 160.496094 30.941406 160.558594 C 30.492188 160.621094 30.039062 160.609375 29.59375 160.519531 C 28.183594 160.21875 26.792969 159.84375 25.421875 159.394531 C 26.800781 159.820312 28.148438 160.320312 29.472656 160.894531 C 29.890625 161.078125 30.265625 161.328125 30.597656 161.640625 C 30.929688 161.953125 31.203125 162.3125 31.410156 162.71875 C 31.621094 163.125 31.757812 163.554688 31.820312 164.007812 C 31.882812 164.460938 31.867188 164.910156 31.777344 165.355469 C 31.480469 166.765625 31.105469 168.15625 30.65625 169.527344 C 31.082031 168.152344 31.582031 166.800781 32.152344 165.476562 Z M 32.152344 165.476562 " fill-opacity="1" fill-rule="nonzero"/></g></g></g><g clip-path="url(#426bcb5675)"><g clip-path="url(#ef70efb6b9)"><g clip-path="url(#3a1b422ff6)"><path fill="#c9f8f6" d="M 21.542969 178.796875 C 21.65625 178.542969 21.808594 178.3125 22 178.109375 C 22.191406 177.90625 22.410156 177.742188 22.65625 177.613281 C 22.90625 177.484375 23.167969 177.402344 23.445312 177.363281 C 23.71875 177.324219 23.996094 177.335938 24.269531 177.390625 C 25.128906 177.574219 25.976562 177.800781 26.816406 178.074219 C 25.972656 177.816406 25.148438 177.511719 24.339844 177.160156 C 24.085938 177.046875 23.855469 176.894531 23.65625 176.703125 C 23.453125 176.511719 23.285156 176.292969 23.15625 176.046875 C 23.03125 175.796875 22.945312 175.535156 22.910156 175.257812 C 22.871094 174.984375 22.878906 174.707031 22.933594 174.433594 C 23.117188 173.574219 23.34375 172.726562 23.621094 171.886719 C 23.359375 172.730469 23.054688 173.554688 22.703125 174.363281 C 22.589844 174.617188 22.441406 174.847656 22.25 175.050781 C 22.058594 175.25 21.835938 175.417969 21.589844 175.546875 C 21.34375 175.671875 21.078125 175.757812 20.804688 175.796875 C 20.527344 175.832031 20.253906 175.824219 19.980469 175.769531 C 19.117188 175.585938 18.269531 175.359375 17.433594 175.082031 C 18.273438 175.34375 19.097656 175.648438 19.90625 176 C 20.160156 176.113281 20.390625 176.265625 20.59375 176.453125 C 20.796875 176.644531 20.960938 176.867188 21.089844 177.113281 C 21.21875 177.363281 21.300781 177.625 21.339844 177.898438 C 21.378906 178.175781 21.367188 178.449219 21.3125 178.722656 C 21.128906 179.585938 20.902344 180.433594 20.628906 181.273438 C 20.886719 180.429688 21.191406 179.605469 21.542969 178.796875 Z M 21.542969 178.796875 " fill-opacity="1" fill-rule="nonzero"/></g></g></g><g clip-path="url(#6ba0cfe8e6)"><g clip-path="url(#c8a35c7b2c)"><g clip-path="url(#a041bc7ee1)"><path fill="#c9f8f6" d="M 352.230469 215.03125 C 351.976562 215.605469 351.632812 216.121094 351.199219 216.582031 C 350.769531 217.039062 350.273438 217.410156 349.714844 217.699219 C 349.15625 217.988281 348.566406 218.175781 347.945312 218.261719 C 347.320312 218.347656 346.703125 218.328125 346.085938 218.203125 C 344.144531 217.792969 342.230469 217.277344 340.34375 216.660156 C 342.238281 217.246094 344.097656 217.933594 345.921875 218.722656 C 346.496094 218.976562 347.011719 219.320312 347.46875 219.75 C 347.925781 220.179688 348.300781 220.675781 348.589844 221.234375 C 348.875 221.792969 349.0625 222.382812 349.152344 223.007812 C 349.238281 223.628906 349.21875 224.25 349.09375 224.863281 C 348.679688 226.808594 348.164062 228.71875 347.546875 230.605469 C 348.132812 228.710938 348.820312 226.851562 349.609375 225.03125 C 349.863281 224.453125 350.207031 223.9375 350.640625 223.480469 C 351.070312 223.023438 351.566406 222.652344 352.125 222.363281 C 352.683594 222.074219 353.273438 221.886719 353.894531 221.800781 C 354.519531 221.710938 355.136719 221.730469 355.753906 221.855469 C 357.695312 222.269531 359.609375 222.785156 361.496094 223.402344 C 359.597656 222.816406 357.742188 222.128906 355.917969 221.339844 C 355.34375 221.085938 354.828125 220.742188 354.371094 220.3125 C 353.914062 219.878906 353.539062 219.386719 353.25 218.828125 C 352.960938 218.269531 352.773438 217.675781 352.6875 217.054688 C 352.601562 216.433594 352.621094 215.8125 352.746094 215.195312 C 353.15625 213.253906 353.671875 211.339844 354.292969 209.457031 C 353.703125 211.351562 353.015625 213.210938 352.230469 215.03125 Z M 352.230469 215.03125 " fill-opacity="1" fill-rule="nonzero"/></g></g></g><g clip-path="url(#95e41f8c21)"><g clip-path="url(#cf38cfae03)"><g clip-path="url(#9edd16ae96)"><path fill="#c9f8f6" d="M 337.941406 219.046875 C 337.8125 219.339844 337.640625 219.597656 337.421875 219.832031 C 337.203125 220.0625 336.953125 220.25 336.667969 220.398438 C 336.386719 220.542969 336.085938 220.636719 335.773438 220.683594 C 335.457031 220.726562 335.144531 220.714844 334.832031 220.652344 C 333.851562 220.445312 332.882812 220.183594 331.925781 219.871094 C 332.886719 220.167969 333.828125 220.515625 334.75 220.914062 C 335.039062 221.042969 335.300781 221.214844 335.53125 221.433594 C 335.765625 221.652344 335.953125 221.902344 336.097656 222.1875 C 336.246094 222.46875 336.339844 222.769531 336.382812 223.082031 C 336.425781 223.398438 336.417969 223.710938 336.355469 224.023438 C 336.144531 225.003906 335.886719 225.972656 335.570312 226.929688 C 335.871094 225.96875 336.21875 225.027344 336.617188 224.105469 C 336.746094 223.816406 336.917969 223.554688 337.136719 223.324219 C 337.355469 223.089844 337.605469 222.902344 337.886719 222.757812 C 338.171875 222.609375 338.46875 222.515625 338.785156 222.472656 C 339.101562 222.429688 339.414062 222.4375 339.726562 222.5 C 340.707031 222.710938 341.675781 222.96875 342.628906 223.285156 C 341.671875 222.984375 340.730469 222.636719 339.808594 222.238281 C 339.515625 222.109375 339.257812 221.9375 339.023438 221.71875 C 338.792969 221.5 338.605469 221.25 338.457031 220.96875 C 338.3125 220.683594 338.21875 220.386719 338.171875 220.070312 C 338.128906 219.753906 338.140625 219.441406 338.203125 219.128906 C 338.410156 218.148438 338.671875 217.179688 338.984375 216.226562 C 338.6875 217.183594 338.339844 218.125 337.941406 219.046875 Z M 337.941406 219.046875 " fill-opacity="1" fill-rule="nonzero"/></g></g></g><g clip-path="url(#85d11ff1da)"><g clip-path="url(#81895b75e2)"><g clip-path="url(#5006a0dfd9)"><path fill="#c9f8f6" d="M 345.332031 209.769531 C 345.167969 210.132812 344.910156 210.410156 344.554688 210.59375 C 344.199219 210.777344 343.824219 210.828125 343.433594 210.75 C 342.832031 210.621094 342.242188 210.460938 341.660156 210.269531 C 342.246094 210.453125 342.820312 210.664062 343.382812 210.910156 C 343.75 211.070312 344.023438 211.328125 344.207031 211.683594 C 344.390625 212.039062 344.441406 212.414062 344.363281 212.808594 C 344.234375 213.40625 344.078125 214 343.886719 214.582031 C 344.066406 213.996094 344.277344 213.421875 344.523438 212.859375 C 344.683594 212.492188 344.945312 212.21875 345.300781 212.035156 C 345.65625 211.851562 346.027344 211.796875 346.421875 211.878906 C 347.019531 212.003906 347.613281 212.164062 348.195312 212.355469 C 347.609375 212.175781 347.035156 211.960938 346.472656 211.71875 C 346.105469 211.554688 345.832031 211.296875 345.648438 210.941406 C 345.464844 210.585938 345.414062 210.210938 345.492188 209.820312 C 345.621094 209.21875 345.777344 208.628906 345.96875 208.046875 C 345.789062 208.632812 345.574219 209.207031 345.332031 209.769531 Z M 345.332031 209.769531 " fill-opacity="1" fill-rule="nonzero"/></g></g></g></svg>